<?xml version="1.0" encoding="UTF-8" standalone="no"?>
<svg
   width="700pt"
   height="700pt"
   version="1.1"
   viewBox="0 0 700 700"
   id="svg258"
   sodipodi:docname="robot_news.svg"
   inkscape:version="1.1.2 (0a00cf5339, 2022-02-04)"
   xmlns:inkscape="http://www.inkscape.org/namespaces/inkscape"
   xmlns:sodipodi="http://sodipodi.sourceforge.net/DTD/sodipodi-0.dtd"
   xmlns="http://www.w3.org/2000/svg"
   xmlns:svg="http://www.w3.org/2000/svg">
  <sodipodi:namedview
     id="namedview260"
     pagecolor="#ffffff"
     bordercolor="#666666"
     borderopacity="1.0"
     inkscape:pageshadow="2"
     inkscape:pageopacity="0.0"
     inkscape:pagecheckerboard="0"
     inkscape:document-units="pt"
     showgrid="false"
     inkscape:zoom="0.69"
     inkscape:cx="547.10145"
     inkscape:cy="249.27536"
     inkscape:window-width="1208"
     inkscape:window-height="649"
     inkscape:window-x="1966"
     inkscape:window-y="1833"
     inkscape:window-maximized="1"
     inkscape:current-layer="svg258" />
  <defs
     id="defs68">
    <inkscape:perspective
       sodipodi:type="inkscape:persp3d"
       inkscape:vp_x="0 : 350 : 1"
       inkscape:vp_y="0 : 1000 : 0"
       inkscape:vp_z="700 : 350 : 1"
       inkscape:persp3d-origin="350 : 233.33333 : 1"
       id="perspective318" />
    <symbol
       id="v"
       overflow="visible">
      <path
         d="m3.6562-0.21875c-0.1875 0.09375-0.38672 0.16797-0.59375 0.21875-0.19922 0.050781-0.40625 0.078125-0.625 0.078125-0.66797 0-1.1992-0.17969-1.5938-0.54688-0.38672-0.375-0.57812-0.87891-0.57812-1.5156 0-0.64453 0.19141-1.1484 0.57812-1.5156 0.39453-0.375 0.92578-0.5625 1.5938-0.5625 0.21875 0 0.42578 0.027344 0.625 0.078125 0.20703 0.054687 0.40625 0.125 0.59375 0.21875v0.82812c-0.1875-0.125-0.375-0.21875-0.5625-0.28125-0.17969-0.0625-0.37109-0.09375-0.57812-0.09375-0.36719 0-0.65625 0.12109-0.875 0.35938-0.21094 0.23047-0.3125 0.55469-0.3125 0.96875 0 0.40625 0.10156 0.73047 0.3125 0.96875 0.21875 0.23047 0.50781 0.34375 0.875 0.34375 0.20703 0 0.39844-0.023437 0.57812-0.078125 0.1875-0.0625 0.375-0.16016 0.5625-0.29688z"
         id="path2" />
    </symbol>
    <symbol
       id="c"
       overflow="visible">
      <path
         d="m2.6875-2.1719c-0.085938-0.039063-0.16797-0.070313-0.25-0.09375-0.085938-0.019531-0.16797-0.03125-0.25-0.03125-0.25 0-0.44531 0.085937-0.57812 0.25-0.125 0.15625-0.1875 0.38281-0.1875 0.67188v1.375h-0.96875v-2.9844h0.96875v0.48438c0.11328-0.19531 0.25-0.33594 0.40625-0.42188 0.16406-0.09375 0.35938-0.14062 0.57812-0.14062h0.10938c0.039063 0 0.09375 0.007812 0.15625 0.015625z"
         id="path5" />
    </symbol>
    <symbol
       id="b"
       overflow="visible">
      <path
         d="m3.4375-1.5v0.26562h-2.2344c0.03125 0.23047 0.11328 0.40234 0.25 0.51562 0.13281 0.10547 0.32812 0.15625 0.57812 0.15625 0.20703 0 0.41406-0.023438 0.625-0.078125 0.20703-0.0625 0.42188-0.15625 0.64062-0.28125v0.73438c-0.21875 0.09375-0.44531 0.16406-0.67188 0.20312-0.23047 0.039062-0.45312 0.0625-0.67188 0.0625-0.54297 0-0.96484-0.13281-1.2656-0.40625-0.30469-0.28125-0.45312-0.67188-0.45312-1.1719 0-0.47656 0.14453-0.85938 0.4375-1.1406 0.30078-0.28125 0.70703-0.42188 1.2188-0.42188 0.46875 0 0.84375 0.14062 1.125 0.42188s0.42188 0.66406 0.42188 1.1406zm-0.96875-0.32812c0-0.17578-0.058594-0.31641-0.17188-0.42188-0.10547-0.11328-0.24219-0.17188-0.40625-0.17188-0.1875 0-0.33984 0.054687-0.45312 0.15625-0.11719 0.10547-0.1875 0.25-0.21875 0.4375z"
         id="path8" />
    </symbol>
    <symbol
       id="d"
       overflow="visible">
      <path
         d="m1.7969-1.3438c-0.19922 0-0.35156 0.039062-0.45312 0.10938-0.09375 0.0625-0.14062 0.16406-0.14062 0.29688 0 0.11719 0.035156 0.21094 0.10938 0.28125 0.082031 0.0625 0.19531 0.09375 0.34375 0.09375 0.17578 0 0.32812-0.0625 0.45312-0.1875s0.1875-0.28516 0.1875-0.48438v-0.10938zm1.4688-0.35938v1.7031h-0.96875v-0.4375c-0.125 0.17969-0.27344 0.30859-0.4375 0.39062-0.15625 0.082031-0.35156 0.125-0.57812 0.125-0.3125 0-0.57031-0.085938-0.76562-0.26562-0.1875-0.1875-0.28125-0.42188-0.28125-0.70312 0-0.35156 0.11719-0.61328 0.35938-0.78125 0.23828-0.16406 0.61719-0.25 1.1406-0.25h0.5625v-0.0625c0-0.15625-0.0625-0.26562-0.1875-0.32812-0.11719-0.070312-0.29688-0.10938-0.54688-0.10938-0.21094 0-0.40234 0.023437-0.57812 0.0625-0.17969 0.042969-0.33984 0.10156-0.48438 0.17188v-0.71875c0.19531-0.050781 0.39844-0.085938 0.60938-0.10938 0.20703-0.03125 0.41406-0.046875 0.625-0.046875 0.53906 0 0.92969 0.10938 1.1719 0.32812 0.23828 0.21094 0.35938 0.55469 0.35938 1.0312z"
         id="path11" />
    </symbol>
    <symbol
       id="a"
       overflow="visible">
      <path
         d="m1.5-3.8438v0.85938h0.98438v0.67188h-0.98438v1.2812c0 0.13672 0.023438 0.23047 0.078125 0.28125 0.0625 0.042969 0.17578 0.0625 0.34375 0.0625h0.48438v0.6875h-0.8125c-0.38672 0-0.65625-0.078125-0.8125-0.23438s-0.23438-0.42188-0.23438-0.79688v-1.2812h-0.46875v-0.67188h0.46875v-0.85938z"
         id="path14" />
    </symbol>
    <symbol
       id="j"
       overflow="visible">
      <path
         d="m2.5-2.5469v-1.6094h0.95312v4.1562h-0.95312v-0.4375c-0.13672 0.17969-0.28125 0.30859-0.4375 0.39062-0.15625 0.082031-0.33984 0.125-0.54688 0.125-0.375 0-0.68359-0.14453-0.92188-0.4375-0.23047-0.28906-0.34375-0.67188-0.34375-1.1406 0-0.45703 0.11328-0.83203 0.34375-1.125 0.23828-0.28906 0.54688-0.4375 0.92188-0.4375 0.19531 0 0.375 0.042969 0.53125 0.125 0.16406 0.085938 0.31641 0.21484 0.45312 0.39062zm-0.64062 1.9375c0.20703 0 0.36328-0.070313 0.46875-0.21875 0.11328-0.15625 0.17188-0.37891 0.17188-0.67188 0-0.28125-0.058594-0.49219-0.17188-0.64062-0.10547-0.15625-0.26172-0.23438-0.46875-0.23438-0.19922 0-0.35547 0.078125-0.46875 0.23438-0.10547 0.14844-0.15625 0.35938-0.15625 0.64062 0 0.29297 0.050781 0.51562 0.15625 0.67188 0.11328 0.14844 0.26953 0.21875 0.46875 0.21875z"
         id="path17" />
    </symbol>
    <symbol
       id="i"
       overflow="visible">
      <path
         d="m2.0469-0.60938c0.20703 0 0.36328-0.070313 0.46875-0.21875 0.11328-0.15625 0.17188-0.37891 0.17188-0.67188 0-0.28125-0.058594-0.49219-0.17188-0.64062-0.10547-0.15625-0.26172-0.23438-0.46875-0.23438-0.19922 0-0.35547 0.078125-0.46875 0.23438-0.10547 0.14844-0.15625 0.35938-0.15625 0.64062 0 0.29297 0.050781 0.51562 0.15625 0.67188 0.11328 0.14844 0.26953 0.21875 0.46875 0.21875zm-0.625-1.9375c0.125-0.17578 0.26562-0.30469 0.42188-0.39062 0.16406-0.082031 0.35156-0.125 0.5625-0.125 0.36328 0 0.66406 0.14844 0.90625 0.4375 0.23828 0.29297 0.35938 0.66797 0.35938 1.125 0 0.46875-0.12109 0.85156-0.35938 1.1406-0.24219 0.29297-0.54297 0.4375-0.90625 0.4375-0.21094 0-0.39844-0.042969-0.5625-0.125-0.15625-0.082031-0.29688-0.21094-0.42188-0.39062v0.4375h-0.96875v-4.1562h0.96875z"
         id="path20" />
    </symbol>
    <symbol
       id="h"
       overflow="visible">
      <path
         d="m0.0625-2.9844h0.95312l0.8125 2.0156 0.6875-2.0156h0.95312l-1.2656 3.2656c-0.125 0.33203-0.27344 0.56641-0.4375 0.70312-0.16797 0.13281-0.39062 0.20312-0.67188 0.20312h-0.54688v-0.64062h0.29688c0.16406 0 0.28516-0.027344 0.35938-0.078125 0.070313-0.054688 0.12891-0.14062 0.17188-0.26562l0.03125-0.09375z"
         id="path23" />
    </symbol>
    <symbol
       id="g"
       overflow="visible">
      <path
         d="m0.45312-4.1562h0.96875v4.1562h-0.96875z"
         id="path26" />
    </symbol>
    <symbol
       id="f"
       overflow="visible">
      <path
         d="m2.7969-2.8906v0.71875c-0.21094-0.082031-0.40625-0.14453-0.59375-0.1875-0.1875-0.039063-0.37109-0.0625-0.54688-0.0625-0.17969 0-0.3125 0.023437-0.40625 0.0625-0.085938 0.042969-0.125 0.10938-0.125 0.20312 0 0.085938 0.03125 0.14844 0.09375 0.1875 0.070312 0.042969 0.19531 0.074219 0.375 0.09375l0.15625 0.015625c0.48828 0.0625 0.81641 0.16797 0.98438 0.3125 0.17578 0.13672 0.26562 0.35938 0.26562 0.67188s-0.12109 0.55469-0.35938 0.71875c-0.23047 0.15625-0.57812 0.23438-1.0469 0.23438-0.19922 0-0.40625-0.015625-0.625-0.046875-0.21094-0.03125-0.42188-0.078125-0.64062-0.14062v-0.71875c0.1875 0.085937 0.37891 0.15234 0.57812 0.20312 0.20703 0.042969 0.41406 0.0625 0.625 0.0625 0.1875 0 0.32812-0.023438 0.42188-0.078125 0.09375-0.050781 0.14062-0.125 0.14062-0.21875s-0.039062-0.16016-0.10938-0.20312c-0.0625-0.039062-0.1875-0.070312-0.375-0.09375l-0.17188-0.015625c-0.42969-0.050781-0.73047-0.14844-0.90625-0.29688-0.16797-0.14453-0.25-0.36328-0.25-0.65625 0-0.32031 0.10938-0.55469 0.32812-0.70312 0.21875-0.15625 0.55078-0.23438 1-0.23438 0.17578 0 0.35938 0.015625 0.54688 0.046875 0.19531 0.023437 0.41016 0.0625 0.64062 0.125z"
         id="path29" />
    </symbol>
    <symbol
       id="u"
       overflow="visible">
      <path
         d="m1.4219-0.4375v1.5781h-0.96875v-4.125h0.96875v0.4375c0.125-0.17578 0.26562-0.30469 0.42188-0.39062 0.16406-0.082031 0.35156-0.125 0.5625-0.125 0.36328 0 0.66406 0.14844 0.90625 0.4375 0.23828 0.29297 0.35938 0.66797 0.35938 1.125 0 0.46875-0.12109 0.85156-0.35938 1.1406-0.24219 0.29297-0.54297 0.4375-0.90625 0.4375-0.21094 0-0.39844-0.042969-0.5625-0.125-0.15625-0.082031-0.29688-0.21094-0.42188-0.39062zm0.625-1.9375c-0.19922 0-0.35547 0.078125-0.46875 0.23438-0.10547 0.14844-0.15625 0.35938-0.15625 0.64062 0 0.29297 0.050781 0.51562 0.15625 0.67188 0.11328 0.14844 0.26953 0.21875 0.46875 0.21875 0.20703 0 0.36328-0.070313 0.46875-0.21875 0.11328-0.15625 0.17188-0.37891 0.17188-0.67188 0-0.28125-0.058594-0.49219-0.17188-0.64062-0.10547-0.15625-0.26172-0.23438-0.46875-0.23438z"
         id="path32" />
    </symbol>
    <symbol
       id="t"
       overflow="visible">
      <path
         d="m0.45312-4.1562h0.96875v2.2656l1.0938-1.0938h1.1094l-1.4531 1.3594 1.5625 1.625h-1.1562l-1.1562-1.25v1.25h-0.96875z"
         id="path35" />
    </symbol>
    <symbol
       id="s"
       overflow="visible">
      <path
         d="m2.4219-4.1562v0.625h-0.51562c-0.13672 0-0.23438 0.027344-0.29688 0.078125-0.054687 0.054687-0.078125 0.13672-0.078125 0.25v0.21875h0.82812v0.67188h-0.82812v2.3125h-0.95312v-2.3125h-0.46875v-0.67188h0.46875v-0.21875c0-0.32031 0.085937-0.5625 0.26562-0.71875 0.1875-0.15625 0.47266-0.23438 0.85938-0.23438z"
         id="path38" />
    </symbol>
    <symbol
       id="e"
       overflow="visible">
      <path
         d="m1.875-2.375c-0.21094 0-0.37109 0.078125-0.48438 0.23438-0.10547 0.14844-0.15625 0.35938-0.15625 0.64062 0 0.29297 0.050781 0.51562 0.15625 0.67188 0.11328 0.14844 0.27344 0.21875 0.48438 0.21875 0.20703 0 0.36719-0.070313 0.48438-0.21875 0.11328-0.15625 0.17188-0.37891 0.17188-0.67188 0-0.28125-0.058594-0.49219-0.17188-0.64062-0.11719-0.15625-0.27734-0.23438-0.48438-0.23438zm0-0.6875c0.51953 0 0.92188 0.14062 1.2031 0.42188 0.28906 0.27344 0.4375 0.65234 0.4375 1.1406 0 0.5-0.14844 0.89062-0.4375 1.1719-0.28125 0.27344-0.68359 0.40625-1.2031 0.40625-0.51172 0-0.91406-0.13281-1.2031-0.40625-0.29297-0.28125-0.4375-0.67188-0.4375-1.1719 0-0.48828 0.14453-0.86719 0.4375-1.1406 0.28906-0.28125 0.69141-0.42188 1.2031-0.42188z"
         id="path41" />
    </symbol>
    <symbol
       id="r"
       overflow="visible">
      <path
         d="m3.2344-2.5c0.11328-0.17578 0.25391-0.3125 0.42188-0.40625 0.16406-0.10156 0.35156-0.15625 0.5625-0.15625 0.33203 0 0.58594 0.10938 0.76562 0.32812 0.1875 0.21094 0.28125 0.51172 0.28125 0.90625v1.8281h-0.96875v-1.5625c0.007813-0.019531 0.015625-0.039062 0.015625-0.0625v-0.10938c0-0.21875-0.03125-0.375-0.09375-0.46875s-0.16406-0.14062-0.29688-0.14062c-0.1875 0-0.33594 0.078125-0.4375 0.23438-0.09375 0.14844-0.14062 0.35938-0.14062 0.64062v1.4688h-0.96875v-1.5625c0-0.33203-0.03125-0.54688-0.09375-0.64062-0.054688-0.09375-0.15234-0.14062-0.29688-0.14062-0.17969 0-0.32031 0.078125-0.42188 0.23438-0.09375 0.14844-0.14062 0.35938-0.14062 0.64062v1.4688h-0.96875v-2.9844h0.96875v0.4375c0.11328-0.17578 0.24219-0.30469 0.39062-0.39062 0.15625-0.082031 0.32812-0.125 0.51562-0.125 0.20703 0 0.39062 0.054688 0.54688 0.15625 0.15625 0.09375 0.27344 0.23047 0.35938 0.40625z"
         id="path44" />
    </symbol>
    <symbol
       id="q"
       overflow="visible">
      <path
         d="m3.4688-1.8281v1.8281h-0.96875v-1.3906c0-0.25781-0.007812-0.4375-0.015625-0.53125-0.011719-0.10156-0.03125-0.17578-0.0625-0.21875-0.03125-0.0625-0.085937-0.10938-0.15625-0.14062-0.0625-0.039062-0.13281-0.0625-0.20312-0.0625-0.21094 0-0.37109 0.078125-0.48438 0.23438-0.10547 0.15625-0.15625 0.37109-0.15625 0.64062v1.4688h-0.96875v-4.1562h0.96875v1.6094c0.13281-0.17578 0.28516-0.30469 0.45312-0.39062 0.16406-0.082031 0.34375-0.125 0.53125-0.125 0.34375 0 0.60156 0.10938 0.78125 0.32812 0.1875 0.21094 0.28125 0.51172 0.28125 0.90625z"
         id="path47" />
    </symbol>
    <symbol
       id="p"
       overflow="visible">
      <path
         d="m0.5-3.9844h1.1562l1.4375 2.7344v-2.7344h0.98438v3.9844h-1.1562l-1.4375-2.7344v2.7344h-0.98438z"
         id="path50" />
    </symbol>
    <symbol
       id="o"
       overflow="visible">
      <path
         d="m0.42188-1.1719v-1.8125h0.96875v0.29688 0.60938 0.48438c0 0.24219 0.003906 0.41797 0.015625 0.53125 0.007812 0.10547 0.03125 0.17969 0.0625 0.21875 0.039062 0.0625 0.09375 0.11719 0.15625 0.15625 0.0625 0.03125 0.13281 0.046875 0.21875 0.046875 0.19531 0 0.35156-0.078125 0.46875-0.23438 0.11328-0.15625 0.17188-0.36719 0.17188-0.64062v-1.4688h0.95312v2.9844h-0.95312v-0.4375c-0.14844 0.17969-0.30469 0.30859-0.46875 0.39062-0.15625 0.082031-0.33594 0.125-0.53125 0.125-0.34375 0-0.60938-0.10156-0.79688-0.3125-0.17969-0.21875-0.26562-0.53125-0.26562-0.9375z"
         id="path53" />
    </symbol>
    <symbol
       id="n"
       overflow="visible">
      <path
         d="m3.4688-1.8281v1.8281h-0.96875v-1.3906c0-0.25781-0.007812-0.4375-0.015625-0.53125-0.011719-0.10156-0.03125-0.17578-0.0625-0.21875-0.03125-0.0625-0.085937-0.10938-0.15625-0.14062-0.0625-0.039062-0.13281-0.0625-0.20312-0.0625-0.21094 0-0.37109 0.078125-0.48438 0.23438-0.10547 0.15625-0.15625 0.37109-0.15625 0.64062v1.4688h-0.96875v-2.9844h0.96875v0.4375c0.13281-0.17578 0.28516-0.30469 0.45312-0.39062 0.16406-0.082031 0.34375-0.125 0.53125-0.125 0.34375 0 0.60156 0.10938 0.78125 0.32812 0.1875 0.21094 0.28125 0.51172 0.28125 0.90625z"
         id="path56" />
    </symbol>
    <symbol
       id="m"
       overflow="visible">
      <path
         d="m0.5-3.9844h1.7031c0.50781 0 0.89844 0.11719 1.1719 0.34375 0.26953 0.21875 0.40625 0.53906 0.40625 0.95312 0 0.41797-0.13672 0.74219-0.40625 0.96875-0.27344 0.21875-0.66406 0.32812-1.1719 0.32812h-0.67188v1.3906h-1.0312zm1.0312 0.75v1.1094h0.5625c0.19531 0 0.34766-0.046875 0.45312-0.14062 0.11328-0.10156 0.17188-0.24219 0.17188-0.42188 0-0.17578-0.058594-0.3125-0.17188-0.40625-0.10547-0.09375-0.25781-0.14062-0.45312-0.14062z"
         id="path59" />
    </symbol>
    <symbol
       id="l"
       overflow="visible">
      <path
         d="m0.45312-2.9844h0.96875v2.9375c0 0.39453-0.10156 0.69531-0.29688 0.90625-0.1875 0.21875-0.46484 0.32812-0.82812 0.32812h-0.48438v-0.64062h0.17188c0.17578 0 0.29688-0.042969 0.35938-0.125 0.070312-0.074219 0.10938-0.23047 0.10938-0.46875zm0-1.1719h0.96875v0.78125h-0.96875z"
         id="path62" />
    </symbol>
    <symbol
       id="k"
       overflow="visible">
      <path
         d="m2.875-2.8906v0.76562c-0.125-0.082031-0.25781-0.14453-0.39062-0.1875-0.13672-0.039062-0.27344-0.0625-0.40625-0.0625-0.27344 0-0.48047 0.078125-0.625 0.23438-0.14844 0.15625-0.21875 0.37109-0.21875 0.64062 0 0.28125 0.070313 0.5 0.21875 0.65625 0.14453 0.15625 0.35156 0.23438 0.625 0.23438 0.14453 0 0.28516-0.019531 0.42188-0.0625 0.13281-0.039063 0.25781-0.10938 0.375-0.20312v0.78125c-0.14844 0.0625-0.29688 0.10156-0.45312 0.125-0.15625 0.03125-0.3125 0.046875-0.46875 0.046875-0.54297 0-0.96484-0.13281-1.2656-0.40625-0.30469-0.28125-0.45312-0.67188-0.45312-1.1719 0-0.48828 0.14844-0.86719 0.45312-1.1406 0.30078-0.28125 0.72266-0.42188 1.2656-0.42188 0.15625 0 0.3125 0.015625 0.46875 0.046875 0.15625 0.023437 0.30469 0.0625 0.45312 0.125z"
         id="path65" />
    </symbol>
  </defs>
  <g
     id="g256">
    <path
       d="m 603.71,407.2 c -2.0742,0 -3.9219,-1.4961 -4.2969,-3.6133 l -30.371,-172.26 c -0.41797,-2.3789 1.1719,-4.6445 3.543,-5.0664 2.3047,-0.42188 4.6367,1.1602 5.0625,3.543 l 30.375,172.27 c 0.41797,2.375 -1.1719,4.6445 -3.543,5.0664 -0.25781,0.0391 -0.51562,0.0664 -0.76953,0.0664 z"
       id="path70"
       style="fill:#ffde00;fill-opacity:1" />
    <path
       d="m 608.27,433.04 c -2.0742,0 -3.9219,-1.4844 -4.2969,-3.6133 -3.9453,-22.324 -89.434,-26.445 -142.39,-23.77 -2.6406,0.12109 -4.4766,-1.7422 -4.5859,-4.1523 -0.12891,-2.4102 1.7344,-4.457 4.1406,-4.5781 14.82,-0.75391 144.88,-6.2031 151.45,30.977 0.41797,2.3828 -1.1719,4.6445 -3.543,5.0625 -0.25781,0.0547 -0.51562,0.0742 -0.76953,0.0742 z"
       id="path72"
       style="fill:#8a8a8a;fill-opacity:1" />
    <path
       d="m 440.08,285.08 c -2.0742,0 -3.9219,-1.4922 -4.2969,-3.6133 -0.41797,-2.3789 1.1719,-4.6484 3.543,-5.0664 37.137,-6.5586 132,-32.078 125.15,-70.926 -0.41797,-2.3789 1.1719,-4.6445 3.543,-5.0664 2.3242,-0.42188 4.6445,1.1602 5.0664,3.543 4.2031,23.805 -17.227,44.742 -63.688,62.23 -33.309,12.535 -68.199,18.766 -68.551,18.824 -0.25781,0.0547 -0.51172,0.0742 -0.76953,0.0742 z"
       id="path74"
       style="fill:#8a8a8a;fill-opacity:1" />
    <path
       d="m 568.78,209.09 c -2.0742,0 -3.9297,-1.4922 -4.2969,-3.6172 -0.41797,-2.3789 1.1719,-4.6445 3.543,-5.0664 l 17.238,-3.0312 c 2.3398,-0.375 4.6562,1.1719 5.0664,3.5547 0.41797,2.3789 -1.168,4.6445 -3.543,5.0664 l -17.234,3.0312 c -0.26172,0.0391 -0.51562,0.0625 -0.77344,0.0625 z"
       id="path76"
       style="fill:#8a8ab3;fill-opacity:1" />
    <path
       d="m 625.49,430 c -2.0742,0 -3.9219,-1.4961 -4.2969,-3.6133 l -39.477,-223.95 c -0.41797,-2.3789 1.168,-4.6445 3.543,-5.0664 2.3398,-0.42188 4.6445,1.1602 5.0664,3.543 l 39.477,223.95 c 0.41797,2.375 -1.1719,4.6445 -3.543,5.0664 -0.25781,0.0469 -0.51562,0.0703 -0.76953,0.0703 z"
       id="path78"
       style="fill:#8a8a8a;fill-opacity:1" />
    <path
       d="m 608.27,433.04 c -2.0742,0 -3.9219,-1.4844 -4.2969,-3.6133 -0.41797,-2.3828 1.1719,-4.6445 3.543,-5.0664 l 17.219,-3.0312 c 2.3125,-0.44531 4.6367,1.1523 5.0664,3.543 0.41797,2.375 -1.1719,4.6445 -3.543,5.0664 l -17.219,3.0312 c -0.25781,0.0508 -0.51562,0.0703 -0.76953,0.0703 z"
       id="path80"
       style="fill:#8a8a8a;fill-opacity:1" />
    <path
       d="m 375.22,420.85 c -2.0742,0 -3.9219,-1.4961 -4.2969,-3.6133 l -21.266,-120.58 c -0.20703,-1.1445 0.0586,-2.3242 0.72656,-3.2617 0.65625,-0.95703 1.6719,-1.6055 2.8203,-1.8008 l 86.129,-15.188 c 2.3125,-0.43359 4.6367,1.1602 5.0664,3.543 0.41797,2.3789 -1.1719,4.6445 -3.543,5.0664 l -81.824,14.426 19.746,111.97 81.824,-14.426 c 2.3398,-0.43359 4.6445,1.1602 5.0625,3.543 0.41797,2.375 -1.168,4.6445 -3.543,5.0664 l -86.129,15.188 c -0.26172,0.0391 -0.51953,0.0664 -0.77344,0.0664 z"
       id="path82"
       style="fill:#8a8a8a;fill-opacity:1" />
    <path
       d="m 375.23,420.85 c -0.29688,0 -0.59766,-0.0234 -0.89453,-0.0937 l -46.105,-9.6367 c -1.75,-0.35938 -3.1016,-1.7617 -3.4062,-3.5195 l -15.188,-86.129 c -0.31641,-1.7578 0.48047,-3.5352 2,-4.4766 l 40.023,-24.82 c 1.2383,-0.75391 2.7656,-0.85547 4.0898,-0.27344 1.3242,0.58984 2.2695,1.8008 2.5195,3.2305 l 21.266,120.58 c 0.25781,1.4336 -0.22266,2.8867 -1.2617,3.8945 -0.82422,0.80469 -1.9141,1.2422 -3.043,1.2422 z m -42.312,-17.691 36.883,7.7148 -19.02,-107.86 -32.02,19.867 z"
       id="path84"
       style="fill:#ffde00;fill-opacity:1" />
    <path
       d="m 458.31,388.43 c -2.0742,0 -3.9219,-1.4961 -4.2969,-3.6133 l -15.188,-86.129 c -0.41797,-2.375 1.1719,-4.6445 3.543,-5.0664 2.3398,-0.43359 4.6445,1.1523 5.0664,3.543 l 15.188,86.129 c 0.41797,2.375 -1.1719,4.6445 -3.543,5.0664 -0.25781,0.043 -0.51172,0.0703 -0.76953,0.0703 z"
       id="path86"
       style="fill:#ffde00;fill-opacity:1" />
    <path
       d="m 334.19,339.27 c -2.082,0 -3.9297,-1.4961 -4.2969,-3.6133 -0.41797,-2.3828 1.168,-4.6445 3.543,-5.0742 l 8.6094,-1.5039 c 2.3398,-0.41016 4.6445,1.1602 5.0625,3.5547 0.41797,2.375 -1.168,4.6445 -3.543,5.0547 l -8.6094,1.5195 c -0.25391,0.0391 -0.51172,0.0625 -0.76562,0.0625 z"
       id="path88"
       style="fill:#8a8a8a;fill-opacity:1" />
    <path
       d="m 343.3,390.95 c -2.082,0 -3.9297,-1.4922 -4.2969,-3.6211 -0.41797,-2.375 1.168,-4.6445 3.5508,-5.0547 l 8.6289,-1.5195 c 2.3398,-0.39453 4.6367,1.1797 5.0547,3.5508 0.41797,2.3828 -1.168,4.6445 -3.5508,5.0742 l -8.625,1.5039 c -0.25781,0.0469 -0.50781,0.0664 -0.76172,0.0664 z"
       id="path90"
       style="fill:#8a8a8a;fill-opacity:1" />
    <path
       d="m 338.75,365.11 c -2.0742,0 -3.9219,-1.4961 -4.2969,-3.6133 -0.41797,-2.375 1.168,-4.6445 3.543,-5.0664 l 8.6094,-1.5195 c 2.3047,-0.44531 4.6367,1.1523 5.0625,3.543 0.41797,2.375 -1.168,4.6445 -3.543,5.0664 l -8.6094,1.5195 c -0.25,0.0469 -0.50781,0.0703 -0.76562,0.0703 z"
       id="path92"
       style="fill:#8a8a8a;fill-opacity:1" />
    <path
       d="m 492.75,533.34 c -1.5977,0 -3.1328,-0.87891 -3.9023,-2.4102 l -41.031,-81.566 c -1.0859,-2.1641 -0.22266,-4.793 1.9375,-5.8672 2.1367,-1.0938 4.7734,-0.23047 5.8672,1.9375 l 41.031,81.566 c 1.0859,2.1602 0.22266,4.793 -1.9375,5.8672 -0.63281,0.32812 -1.2969,0.47266 -1.9648,0.47266 z"
       id="path96"
       style="fill:#ffde00;fill-opacity:1" />
    <path
       d="m 449.69,540.94 c -1.5977,0 -3.1328,-0.87891 -3.9023,-2.4102 l -41.031,-81.582 c -1.082,-2.1602 -0.22266,-4.793 1.9375,-5.8672 2.1445,-1.0938 4.7734,-0.23828 5.8672,1.9375 l 41.031,81.582 c 1.082,2.1602 0.22266,4.793 -1.9375,5.8672 -0.63281,0.32812 -1.3008,0.47266 -1.9648,0.47266 z"
       id="path98"
       style="fill:#ffde00;fill-opacity:1" />
    <path
       d="m 441.05,542.45 c -2.0742,0 -3.9219,-1.4883 -4.2969,-3.6133 -0.41797,-2.3828 1.168,-4.6445 3.543,-5.0664 l 60.301,-10.633 c 2.3203,-0.43359 4.6367,1.1523 5.0625,3.543 0.41797,2.375 -1.168,4.6445 -3.543,5.0664 l -60.301,10.633 c -0.25,0.0547 -0.50781,0.0703 -0.76562,0.0703 z"
       id="path100"
       style="fill:#8a8a8a;fill-opacity:1" />
    <path
       d="m 388.39,445.18 c -2.0742,0 -3.9219,-1.4922 -4.2969,-3.6133 l -1.707,-9.6953 c -0.41797,-2.3828 1.1719,-4.6445 3.543,-5.0664 2.3125,-0.44531 4.6367,1.1602 5.0625,3.543 l 1.707,9.6953 c 0.41797,2.375 -1.1719,4.6445 -3.543,5.0625 -0.25781,0.0469 -0.51172,0.0742 -0.76562,0.0742 z"
       id="path102"
       style="fill:#8a8a8a;fill-opacity:1" />
    <path
       d="m 388.39,445.18 c -2.0859,0 -3.9297,-1.4922 -4.3047,-3.6289 -0.41016,-2.375 1.1875,-4.6445 3.5703,-5.0547 l 77.551,-13.41 c 2.3398,-0.39453 4.6289,1.1875 5.0547,3.5703 0.41016,2.375 -1.1875,4.6445 -3.5703,5.0547 l -77.551,13.41 c -0.25,0.0312 -0.50391,0.0586 -0.75,0.0586 z"
       id="path104"
       style="fill:#8a8a8a;fill-opacity:1" />
    <path
       d="m 465.95,431.77 c -2.0742,0 -3.9219,-1.4922 -4.2969,-3.6133 l -1.5195,-8.6094 c -0.41797,-2.375 1.168,-4.6445 3.543,-5.0664 2.332,-0.43359 4.6445,1.1602 5.0664,3.543 l 1.5195,8.6094 c 0.41797,2.375 -1.168,4.6445 -3.543,5.0664 -0.25781,0.043 -0.51562,0.0703 -0.76953,0.0703 z"
       id="path106"
       style="fill:#8a8a8a;fill-opacity:1" />
    <path
       d="m 625.5,288.68 c -2.418,0 -4.3711,-1.957 -4.3711,-4.3711 l -0.004,-262.38 c 0,-2.418 1.957,-4.375 4.3711,-4.375 2.418,0 4.3711,1.957 4.3711,4.375 v 262.38 c 0.004,2.418 -1.9492,4.375 -4.3672,4.375 z"
       id="path108" />
    <path
       d="m 126.98,411.12 c -2.418,0 -4.3711,-1.957 -4.3711,-4.3711 v -384.82 c 0,-2.418 1.957,-4.375 4.3711,-4.375 2.418,0 4.375,1.957 4.375,4.375 v 384.82 c 0,2.418 -1.957,4.3711 -4.375,4.3711 z"
       id="path110" />
    <path
       d="m 100.74,437.36 c -2.418,0 -4.3711,-1.9531 -4.3711,-4.3711 0,-2.418 1.957,-4.3711 4.3711,-4.3711 12.059,0 21.863,-9.8047 21.863,-21.863 0,-2.418 1.957,-4.3711 4.3711,-4.3711 2.418,0 4.375,1.957 4.375,4.3711 0.004,16.871 -13.73,30.605 -30.609,30.605 z"
       id="path112" />
    <path
       d="m 100.74,437.36 c -16.879,0 -30.609,-13.734 -30.609,-30.609 0,-2.418 1.957,-4.3711 4.3711,-4.3711 2.418,0 4.3711,1.957 4.3711,4.3711 0,12.059 9.8047,21.863 21.863,21.863 2.418,0 4.3711,1.957 4.3711,4.3711 0.008,2.4219 -1.9492,4.375 -4.3672,4.375 z"
       id="path114" />
    <path
       d="m 74.5,411.12 c -2.418,0 -4.3711,-1.957 -4.3711,-4.3711 v -358.59 c 0,-2.418 1.957,-4.3711 4.3711,-4.3711 2.418,0 4.3711,1.957 4.3711,4.3711 v 358.59 C 78.875,409.1669 76.918,411.12 74.5,411.12 Z"
       id="path116" />
    <path
       d="m 109.48,411.12 c -2.418,0 -4.3711,-1.957 -4.3711,-4.3711 v -376.08 c 0,-2.418 1.957,-4.3711 4.3711,-4.3711 2.418,0 4.3711,1.957 4.3711,4.3711 v 376.08 c 0.004,2.418 -1.9531,4.3711 -4.3711,4.3711 z"
       id="path118" />
    <path
       d="m 91.992,411.12 c -2.418,0 -4.3711,-1.957 -4.3711,-4.3711 v -367.33 c 0,-2.418 1.957,-4.3711 4.3711,-4.3711 2.418,0 4.375,1.957 4.375,4.3711 v 367.33 c 0,2.418 -1.957,4.3711 -4.375,4.3711 z"
       id="path120" />
    <path
       d="m 100.74,419.87 c -2.418,0 -4.3711,-1.957 -4.3711,-4.3711 0,-2.418 1.957,-4.3711 4.3711,-4.3711 2.4102,0 4.3711,-1.9648 4.3711,-4.3711 0,-2.418 1.957,-4.3711 4.3711,-4.3711 2.418,0 4.3711,1.957 4.3711,4.3711 0.008,7.2266 -5.8789,13.113 -13.113,13.113 z"
       id="path122" />
    <path
       d="m 100.74,419.87 c -7.2344,0 -13.121,-5.8867 -13.121,-13.117 0,-2.418 1.957,-4.3711 4.3711,-4.3711 2.418,0 4.375,1.957 4.375,4.3711 0,2.4102 1.9648,4.3711 4.3711,4.3711 2.418,0 4.3711,1.957 4.3711,4.3711 0.008,2.418 -1.9492,4.375 -4.3672,4.375 z"
       id="path124" />
    <path
       d="M 346.45,437.36 H 100.74 c -2.418,0 -4.3711,-1.9531 -4.3711,-4.3711 0,-2.418 1.957,-4.3711 4.3711,-4.3711 h 245.71 c 2.418,0 4.375,1.957 4.375,4.3711 0,2.418 -1.957,4.3711 -4.375,4.3711 z"
       id="path126" />
    <path
       d="M 625.5,26.297 H 126.98 c -2.418,0 -4.3711,-1.957 -4.3711,-4.3711 0,-2.418 1.957,-4.375 4.3711,-4.375 H 625.5 c 2.418,0 4.3711,1.957 4.3711,4.375 0,2.4141 -1.9531,4.3711 -4.3711,4.3711 z"
       id="path128" />
    <path
       d="M 590.52,113.76 H 179.46 c -2.418,0 -4.3711,-1.957 -4.3711,-4.3711 l -0.004,-52.477 c 0,-2.418 1.957,-4.375 4.3711,-4.375 h 411.06 c 2.418,0 4.3711,1.957 4.3711,4.375 v 52.477 c 0.004,2.4141 -1.9492,4.3711 -4.3672,4.3711 z m -406.69,-8.7461 h 402.32 v -43.73 H 183.83 Z"
       id="path130"
       style="fill:#ffde00;fill-opacity:1" />
    <path
       d="M 564.28,87.52 H 205.69 c -2.418,0 -4.3711,-1.957 -4.3711,-4.3711 0,-2.418 1.957,-4.3711 4.3711,-4.3711 h 358.59 c 2.418,0 4.3711,1.957 4.3711,4.3711 0,2.4141 -1.9531,4.3711 -4.3711,4.3711 z"
       id="path132" />
    <path
       d="m 573.02,437.36 h -78.715 c -2.418,0 -4.3711,-1.9531 -4.3711,-4.3711 0,-2.418 1.957,-4.3711 4.3711,-4.3711 h 78.715 c 2.418,0 4.3711,1.957 4.3711,4.3711 0,2.418 -1.9531,4.3711 -4.3711,4.3711 z"
       id="path134" />
    <path
       d="m 441.83,148.74 h -113.7 c -2.418,0 -4.375,-1.957 -4.375,-4.3711 0,-2.418 1.957,-4.3711 4.375,-4.3711 h 113.7 c 2.418,0 4.3711,1.957 4.3711,4.3711 0,2.4141 -1.957,4.3711 -4.375,4.3711 z"
       id="path148" />
    <path
       d="m 441.83,174.98 h -113.7 c -2.418,0 -4.375,-1.957 -4.375,-4.3711 0,-2.418 1.957,-4.3711 4.375,-4.3711 h 113.7 c 2.418,0 4.3711,1.957 4.3711,4.3711 0,2.4141 -1.957,4.3711 -4.375,4.3711 z"
       id="path150"
       style="fill:#000000;fill-opacity:1" />
    <path
       d="m 441.83,201.22 h -113.7 c -2.418,0 -4.375,-1.957 -4.375,-4.3711 0,-2.418 1.957,-4.375 4.375,-4.375 h 113.7 c 2.418,0 4.3711,1.957 4.3711,4.375 0,2.4141 -1.957,4.3711 -4.375,4.3711 z"
       id="path152" />
    <path
       d="m 441.83,227.46 h -113.7 c -2.418,0 -4.375,-1.957 -4.375,-4.3711 0,-2.418 1.957,-4.3711 4.375,-4.3711 h 113.7 c 2.418,0 4.3711,1.957 4.3711,4.3711 0,2.4141 -1.957,4.3711 -4.375,4.3711 z"
       id="path154"
       style="fill:#000000;fill-opacity:1" />
    <path
       d="m 441.83,253.69 h -113.7 c -2.418,0 -4.375,-1.957 -4.375,-4.3711 0,-2.418 1.957,-4.3711 4.375,-4.3711 h 113.7 c 2.418,0 4.3711,1.957 4.3711,4.3711 0,2.418 -1.957,4.3711 -4.375,4.3711 z"
       id="path156" />
    <path
       d="m 345.63,279.93 h -17.492 c -2.418,0 -4.375,-1.957 -4.375,-4.3711 0,-2.418 1.957,-4.3711 4.375,-4.3711 h 17.492 c 2.418,0 4.3711,1.957 4.3711,4.3711 0,2.4141 -1.957,4.3711 -4.3711,4.3711 z"
       id="path158" />
    <path
       d="M 302.31,253.69 H 179.86 c -2.418,0 -4.3711,-1.957 -4.3711,-4.3711 0,-2.418 1.957,-4.3711 4.3711,-4.3711 h 122.45 c 2.418,0 4.3711,1.957 4.3711,4.3711 0,2.418 -1.957,4.3711 -4.3711,4.3711 z"
       id="path160" />
    <path
       d="M 284.82,358.64 H 179.87 c -2.418,0 -4.3711,-1.957 -4.3711,-4.3711 0,-2.418 1.957,-4.3711 4.3711,-4.3711 h 104.95 c 2.418,0 4.3711,1.957 4.3711,4.3711 0,2.4141 -1.957,4.3711 -4.3711,4.3711 z"
       id="path162" />
    <path
       d="m 293.56,384.88 h -113.7 c -2.418,0 -4.3711,-1.957 -4.3711,-4.3711 0,-2.418 1.957,-4.3711 4.3711,-4.3711 h 113.7 c 2.418,0 4.3711,1.957 4.3711,4.3711 0,2.418 -1.957,4.3711 -4.375,4.3711 z"
       id="path164"
       style="fill:#000000;fill-opacity:1" />
    <path
       d="M 302.31,411.12 H 179.86 c -2.418,0 -4.3711,-1.957 -4.3711,-4.3711 0,-2.418 1.957,-4.3711 4.3711,-4.3711 h 122.45 c 2.418,0 4.3711,1.957 4.3711,4.3711 0,2.418 -1.957,4.3711 -4.3711,4.3711 z"
       id="path166" />
    <path
       d="M 302.31,279.93 H 179.86 c -2.418,0 -4.3711,-1.957 -4.3711,-4.3711 0,-2.418 1.957,-4.3711 4.3711,-4.3711 h 122.45 c 2.418,0 4.3711,1.957 4.3711,4.3711 0,2.4141 -1.957,4.3711 -4.3711,4.3711 z"
       id="path168"
       style="fill:#000000;fill-opacity:1" />
    <path
       d="m 293.56,306.17 h -113.7 c -2.418,0 -4.3711,-1.957 -4.3711,-4.3711 0,-2.418 1.957,-4.375 4.3711,-4.375 h 113.7 c 2.418,0 4.3711,1.957 4.3711,4.375 0,2.4141 -1.957,4.3711 -4.375,4.3711 z"
       id="path170" />
    <path
       d="M 284.82,332.41 H 179.87 c -2.418,0 -4.3711,-1.957 -4.3711,-4.3711 0,-2.418 1.957,-4.375 4.3711,-4.375 h 104.95 c 2.418,0 4.3711,1.957 4.3711,4.375 0,2.418 -1.957,4.3711 -4.3711,4.3711 z"
       id="path172"
       style="fill:#000000;fill-opacity:1" />
    <path
       d="M 590.52,148.74 H 468.07 c -2.418,0 -4.375,-1.957 -4.375,-4.3711 0,-2.418 1.957,-4.3711 4.375,-4.3711 h 122.44 c 2.418,0 4.3711,1.957 4.3711,4.3711 0.004,2.4141 -1.9492,4.3711 -4.3672,4.3711 z"
       id="path174" />
    <path
       d="M 590.52,174.98 H 468.07 c -2.418,0 -4.375,-1.957 -4.375,-4.3711 0,-2.418 1.957,-4.3711 4.375,-4.3711 h 122.44 c 2.418,0 4.3711,1.957 4.3711,4.3711 0.004,2.4141 -1.9492,4.3711 -4.3672,4.3711 z"
       id="path176"
       style="fill:#000000;fill-opacity:1" />
    <path
       d="m 546.79,201.22 h -78.715 c -2.418,0 -4.375,-1.957 -4.375,-4.3711 0,-2.418 1.957,-4.375 4.375,-4.375 h 78.715 c 2.418,0 4.3711,1.957 4.3711,4.375 0,2.4141 -1.9531,4.3711 -4.3711,4.3711 z"
       id="path178" />
    <path
       d="m 520.55,227.46 h -52.477 c -2.418,0 -4.375,-1.957 -4.375,-4.3711 0,-2.418 1.957,-4.3711 4.375,-4.3711 h 52.477 c 2.418,0 4.3711,1.957 4.3711,4.3711 0.004,2.4141 -1.9531,4.3711 -4.3711,4.3711 z"
       id="path180"
       style="fill:#000000;fill-opacity:1" />
    <path
       d="m 476.82,253.69 h -8.7461 c -2.418,0 -4.375,-1.957 -4.375,-4.3711 0,-2.418 1.957,-4.3711 4.375,-4.3711 h 8.7461 c 2.418,0 4.3711,1.957 4.3711,4.3711 0.004,2.418 -1.9531,4.3711 -4.3711,4.3711 z"
       id="path182" />
    <path
       d="m 278.86599,203.44478 c 0,-1.81397 -1.33663,-3.29171 -2.97687,-3.29171 h -1.30216 v -6.91505 h -2.35238 v 6.91505 h -3.95824 v -6.91505 h -2.35238 v 6.91505 h -3.95824 v -6.91505 h -2.35238 v 6.91505 h -1.3038 c -1.64186,0 -2.97939,1.47765 -2.97939,3.29171 v 1.43957 h -6.26063 v 2.59897 h 6.26063 v 4.37317 h -6.26063 v 2.59898 h 6.26063 v 4.37223 h -6.26063 v 2.59898 h 6.26063 v 1.43775 c 0,1.81397 1.33745,3.29172 2.97939,3.29172 h 1.30216 v 6.91784 h 2.35239 v -6.91784 h 3.95823 v 6.91784 h 2.35238 v -6.91784 h 3.95824 v 6.91784 h 2.35238 v -6.91784 h 1.30216 c 1.64186,0 2.97687,-1.47765 2.97687,-3.29172 v -1.43775 h 6.2621 v -2.59898 h -6.2621 v -4.37223 h 6.2621 v -2.59898 h -6.2621 v -4.37317 h 6.2621 v -2.59897 h -6.2621 l 6.8e-4,-1.43957 z m -2.35239,19.42328 c 0,0.38164 -0.27978,0.6926 -0.62441,0.6926 h -17.57954 c -0.34544,0 -0.62689,-0.31093 -0.62689,-0.6926 v -19.42328 c 0,-0.38163 0.28143,-0.69259 0.62689,-0.69259 h 17.57954 c 0.34461,0 0.62441,0.31093 0.62441,0.69259 z"
       id="path76-3"
       style="fill:#ffde00;fill-opacity:1;stroke-width:0.220788" />
    <path
       d="m 289.90636,183.93681 h -10.63728 v -1.76231 c 0,-4.75377 -2.24988,-8.93107 -5.63131,-11.32071 l 6.14489,-20.86654 c 1.68206,-0.70529 3.09345,-2.07685 3.92379,-3.93803 0.85662,-1.92184 0.98463,-4.09653 0.3602,-6.12554 -0.15672,-0.50676 -0.35529,-0.98993 -0.59159,-1.44228 -0.71058,-1.36071 -1.77069,-2.46043 -3.07372,-3.16825 -0.002,-6.5e-4 -0.006,-0.003 -0.008,-0.004 l -31.14246,-16.9438 c -1.19386,-0.92376 -2.62819,-1.45678 -4.16094,-1.45678 -0.0329,0 -0.0657,0.006 -0.10011,0.006 -0.0328,0 -0.0657,-0.006 -0.0985,-0.006 h -6.8e-4 c -1.52943,0 -2.9628,0.53124 -4.15589,1.45407 l -31.15295,16.94846 c -3.23607,1.75957 -4.75077,5.84543 -3.72508,9.54025 l -9.46877,5.39196 -10.31969,-5.08841 -5.50086,7.4082 1.81826,1.64899 4.36196,-5.87421 8.17903,4.03133 -3.2033,9.24111 -6.8431,-0.74607 -0.23057,2.58645 8.62939,0.93917 4.08363,-11.77952 9.53767,-5.43095 c 1.34894,2.08594 3.51103,3.3451 5.89219,3.34694 1.1159,0 2.19254,-0.2783 3.20078,-0.82675 l 28.99781,-15.77557 26.1915,14.24877 -6.53874,20.83033 c -5.53762,1.25827 -9.71495,6.68484 -9.71495,13.17008 v 1.76232 h -10.63733 c -2.00781,0 -3.64148,1.80672 -3.64148,4.02505 v 50.39678 c 0,2.21829 1.63364,4.02321 3.64148,4.02321 h 45.61299 c 2.00782,0 3.64147,-1.8049 3.64147,-4.02321 l -6.8e-4,-50.39678 c 6.8e-4,-2.21918 -1.63282,-4.02413 -3.64063,-4.02413 z m -8.31094,-39.03685 c -0.832,1.86746 -2.52064,3.02784 -4.40545,3.02784 -0.75322,0 -1.4794,-0.18856 -2.16206,-0.55842 -1.175,-0.6391 -2.05624,-1.74687 -2.47716,-3.11765 -0.42256,-1.37066 -0.3356,-2.84103 0.2437,-4.13924 0.832,-1.86746 2.52064,-3.02784 4.40544,-3.02784 0.75323,0 1.4794,0.18855 2.16208,0.55841 1.17499,0.6391 2.05622,1.74688 2.47715,3.11766 0.42256,1.36975 0.3356,2.84102 -0.2437,4.13924 z m -39.7063,-15.68019 c -0.10257,-0.087 -0.18626,-0.19581 -0.28228,-0.29281 -0.14358,-0.14414 -0.29373,-0.28101 -0.41846,-0.44056 -0.0788,-0.0997 -0.13867,-0.21847 -0.2117,-0.32453 -0.11897,-0.17406 -0.2437,-0.34449 -0.34133,-0.53304 -0.10585,-0.20579 -0.18462,-0.42881 -0.26667,-0.65 -0.0698,-0.18583 -0.13046,-0.37259 -0.17969,-0.56567 -0.0657,-0.25384 -0.12964,-0.50676 -0.16245,-0.76331 -0.0238,-0.18312 -0.0156,-0.36895 -0.0213,-0.55479 -0.005,-0.1668 -0.0246,-0.3327 -0.0156,-0.49949 0.008,-0.15683 0.0459,-0.31457 0.0673,-0.47139 0.0271,-0.19489 0.041,-0.39252 0.087,-0.5847 0.0156,-0.0607 0.0443,-0.11966 0.0615,-0.1804 0.0763,-0.2792 0.16246,-0.55751 0.28143,-0.82495 0.34788,-0.78233 0.85415,-1.43051 1.45478,-1.93271 l 0.98544,-0.53667 c 0.6515,-0.35354 1.34649,-0.53034 2.06361,-0.54574 0.71632,0.0154 1.4113,0.19127 2.0636,0.54574 2.42548,1.32081 3.42806,4.57623 2.23349,7.25689 -0.832,1.86747 -2.52064,3.02785 -4.40628,3.02785 -0.75078,0 -1.47529,-0.18856 -2.15473,-0.55479 l -0.006,-0.003 c -0.10831,-0.0589 -0.2002,-0.14051 -0.30195,-0.20669 -0.18051,-0.11513 -0.36841,-0.22573 -0.53005,-0.36533 z m -26.93299,18.14966 c -0.68185,0.37078 -1.40882,0.55841 -2.16123,0.55841 -1.88556,0 -3.57343,-1.16035 -4.40629,-3.02784 -1.19385,-2.68159 -0.19199,-5.93687 2.23518,-7.25689 l 27.26697,-14.83544 c -0.007,0.0263 -0.0156,0.0507 -0.0213,0.077 -0.0246,0.10243 -0.0402,0.20578 -0.0599,0.30821 -0.032,0.15955 -0.0672,0.3182 -0.0902,0.47956 -0.007,0.0472 -0.009,0.0952 -0.0156,0.14142 -0.15755,1.22835 -0.059,2.49013 0.31426,3.69876 0.006,0.0181 0.0156,0.0335 0.0213,0.0516 0.14688,0.46776 0.33149,0.92104 0.55385,1.35254 0.0237,0.0444 0.0509,0.0843 0.0738,0.12691 0.21744,0.40251 0.46358,0.78777 0.74339,1.14495 0.0296,0.0363 0.0624,0.0698 0.0919,0.10697 0.288,0.35355 0.60308,0.68534 0.9518,0.98089 0.0164,0.0145 0.0345,0.0263 0.0509,0.0389 0.3635,0.30369 0.75489,0.57837 1.17828,0.80864 0.006,0.003 0.0115,0.006 0.0164,0.008 l 0.63425,0.34448 z m 33.34589,-15.24504 c 3.17055,-1.72333 4.69343,-5.68044 3.79084,-9.31561 l 22.47986,12.23089 c -1.66648,0.71073 -3.06552,2.07505 -3.89081,3.92435 -0.80904,1.81939 -0.96,3.86632 -0.44472,5.79994 L 247.6523,132.47783 Z m 25.68738,17.57482 c 0.9953,0.5421 2.05951,0.81768 3.16235,0.82404 l -5.63446,19.13411 c -1.33663,-0.57837 -2.78152,-0.90745 -4.29705,-0.92376 l 6.09069,-19.40425 z m -16.70572,32.47384 c 0,-5.98049 4.40376,-10.84658 9.81746,-10.84658 5.41306,0 9.81744,4.86539 9.81744,10.84658 v 1.76231 h -19.63511 z m -12.98898,57.60881 c -0.71056,0 -1.28903,-0.63819 -1.28903,-1.42415 0.95644,-52.08014 -6.54392,-51.82275 46.90202,-51.82275 3.63841,51.82239 -4.74295,53.64103 -45.61299,53.2469 z"
       id="path78-6"
       style="fill:#8a8a8a;fill-opacity:1;stroke-width:0.220788"
       sodipodi:nodetypes="ccsccccccccssssccccccccccccccccccccscssssscccccscccsccccccccccccccccccccccsccccccscccccccccccccccccccccccccccccccccssccccccc" />
  </g>
</svg>
