<?xml version="1.0" encoding="UTF-8" standalone="no"?>
<svg
   role="img"
   viewBox="0 0 24 24"
   version="1.1"
   id="svg146"
   sodipodi:docname="github2.svg"
   inkscape:version="1.1.2 (0a00cf5339, 2022-02-04)"
   xmlns:inkscape="http://www.inkscape.org/namespaces/inkscape"
   xmlns:sodipodi="http://sodipodi.sourceforge.net/DTD/sodipodi-0.dtd"
   xmlns="http://www.w3.org/2000/svg"
   xmlns:svg="http://www.w3.org/2000/svg"
   xmlns:rdf="http://www.w3.org/1999/02/22-rdf-syntax-ns#"
   xmlns:cc="http://creativecommons.org/ns#"
   xmlns:dc="http://purl.org/dc/elements/1.1/">
  <defs
     id="defs150">
    <inkscape:path-effect
       effect="powermask"
       id="path-effect878"
       is_visible="true"
       lpeversion="1"
       uri="#mask-powermask-path-effect878"
       invert="false"
       hide_mask="false"
       background="true"
       background_color="#ffffffff" />
    <mask
       maskUnits="userSpaceOnUse"
       id="mask-powermask-path-effect878">
      <path
         id="mask-powermask-path-effect878_box"
         style="fill:#ffffff;fill-opacity:1"
         d="M -1,-0.703 H 25 V 24.702735 H -1 Z" />
      <text
         xml:space="preserve"
         style="font-style:normal;font-weight:normal;font-size:7.48611px;line-height:1.25;font-family:sans-serif;display:inline;opacity:1;mix-blend-mode:normal;fill:#000000;fill-opacity:1;stroke:none;stroke-width:0.187153"
         x="0.58857584"
         y="17.02471"
         id="text876"
         transform="scale(1.0100662,0.99003411)"><tspan
           sodipodi:role="line"
           id="tspan874"
           x="0.58857584"
           y="17.02471"
           style="fill:#000000;stroke-width:0.187153">2</tspan></text>
    </mask>
    <filter
       id="mask-powermask-path-effect878_inverse"
       inkscape:label="filtermask-powermask-path-effect878"
       style="color-interpolation-filters:sRGB"
       height="100"
       width="100"
       x="-50"
       y="-50">
      <feColorMatrix
         id="mask-powermask-path-effect878_primitive1"
         values="1"
         type="saturate"
         result="fbSourceGraphic" />
      <feColorMatrix
         id="mask-powermask-path-effect878_primitive2"
         values="-1 0 0 0 1 0 -1 0 0 1 0 0 -1 0 1 0 0 0 1 0 "
         in="fbSourceGraphic" />
    </filter>
  </defs>
  <sodipodi:namedview
     id="namedview148"
     pagecolor="#ffffff"
     bordercolor="#666666"
     borderopacity="1.0"
     inkscape:pageshadow="2"
     inkscape:pageopacity="0.0"
     inkscape:pagecheckerboard="0"
     showgrid="true"
     inkscape:zoom="32"
     inkscape:cx="4.453125"
     inkscape:cy="14.5"
     inkscape:window-width="1208"
     inkscape:window-height="649"
     inkscape:window-x="1966"
     inkscape:window-y="1833"
     inkscape:window-maximized="1"
     inkscape:current-layer="svg146">
    <inkscape:grid
       type="xygrid"
       id="grid602" />
  </sodipodi:namedview>
  <title
     id="title142">GitHub icon</title>
  <path
     fill="#fff"
     d="m 12,0.297 c -6.63,0 -12,5.373 -12,12 0,5.303 3.438,9.8 8.205,11.385 0.6,0.113 0.82,-0.258 0.82,-0.577 0,-0.285 -0.01,-1.04 -0.015,-2.04 C 5.672,21.789 4.968,19.455 4.968,19.455 4.422,18.07 3.633,17.7 3.633,17.7 2.546,16.956 3.717,16.971 3.717,16.971 c 1.205,0.084 1.838,1.236 1.838,1.236 1.07,1.835 2.809,1.305 3.495,0.998 C 9.158,18.429 9.467,17.9 9.81,17.6 7.145,17.3 4.344,16.268 4.344,11.67 4.344,10.36 4.809,9.29 5.579,8.45 5.444,8.147 5.039,6.927 5.684,5.274 c 0,0 1.005,-0.322 3.3,1.23 0.96,-0.267 1.98,-0.399 3,-0.405 1.02,0.006 2.04,0.138 3,0.405 2.28,-1.552 3.285,-1.23 3.285,-1.23 0.645,1.653 0.24,2.873 0.12,3.176 0.765,0.84 1.23,1.91 1.23,3.22 0,4.61 -2.805,5.625 -5.475,5.92 0.42,0.36 0.81,1.096 0.81,2.22 0,1.606 -0.015,2.896 -0.015,3.286 0,0.315 0.21,0.69 0.825,0.57 C 20.565,22.092 24,17.592 24,12.297 c 0,-6.627 -5.373,-12 -12,-12"
     id="path144"
     inkscape:label="path144"
     style="fill:#ffffff"
     mask="url(#mask-powermask-path-effect878)"
     inkscape:path-effect="#path-effect878"
     inkscape:original-d="M12 .297c-6.63 0-12 5.373-12 12 0 5.303 3.438 9.8 8.205 11.385.6.113.82-.258.82-.577 0-.285-.01-1.04-.015-2.04-3.338.724-4.042-1.61-4.042-1.61C4.422 18.07 3.633 17.7 3.633 17.7c-1.087-.744.084-.729.084-.729 1.205.084 1.838 1.236 1.838 1.236 1.07 1.835 2.809 1.305 3.495.998.108-.776.417-1.305.76-1.605-2.665-.3-5.466-1.332-5.466-5.93 0-1.31.465-2.38 1.235-3.22-.135-.303-.54-1.523.105-3.176 0 0 1.005-.322 3.3 1.23.96-.267 1.98-.399 3-.405 1.02.006 2.04.138 3 .405 2.28-1.552 3.285-1.23 3.285-1.23.645 1.653.24 2.873.12 3.176.765.84 1.23 1.91 1.23 3.22 0 4.61-2.805 5.625-5.475 5.92.42.36.81 1.096.81 2.22 0 1.606-.015 2.896-.015 3.286 0 .315.21.69.825.57C20.565 22.092 24 17.592 24 12.297c0-6.627-5.373-12-12-12" />
  <metadata
     id="metadata232">
    <rdf:RDF>
      <cc:Work
         rdf:about="">
        <dc:title>GitHub icon</dc:title>
      </cc:Work>
    </rdf:RDF>
  </metadata>
</svg>
