<?xml version="1.0" encoding="UTF-8" standalone="no"?>
<svg
   width="502.13004pt"
   height="504.63464pt"
   version="1.1"
   viewBox="0 0 502.13004 504.63464"
   id="svg366"
   sodipodi:docname="navigation.svg"
   inkscape:version="1.1.2 (0a00cf5339, 2022-02-04)"
   xmlns:inkscape="http://www.inkscape.org/namespaces/inkscape"
   xmlns:sodipodi="http://sodipodi.sourceforge.net/DTD/sodipodi-0.dtd"
   xmlns="http://www.w3.org/2000/svg"
   xmlns:svg="http://www.w3.org/2000/svg">
  <sodipodi:namedview
     id="namedview368"
     pagecolor="#ffffff"
     bordercolor="#666666"
     borderopacity="1.0"
     inkscape:pageshadow="2"
     inkscape:pageopacity="0.0"
     inkscape:pagecheckerboard="0"
     inkscape:document-units="pt"
     showgrid="false"
     inkscape:zoom="0.47571429"
     inkscape:cx="-95.645646"
     inkscape:cy="428.82883"
     inkscape:window-width="1208"
     inkscape:window-height="649"
     inkscape:window-x="1966"
     inkscape:window-y="1833"
     inkscape:window-maximized="1"
     inkscape:current-layer="g364"
     fit-margin-top="0"
     fit-margin-left="0"
     fit-margin-right="0"
     fit-margin-bottom="0" />
  <defs
     id="defs284" />
  <g
     id="g364"
     inkscape:label="nav"
     transform="translate(-98.933966,-27.66)">
    <path
       d="m 287.29,106.68 c 0,44.234 -80.102,126.42 -80.102,126.42 0,0 -80.086,-82.188 -80.086,-126.42 0,-105.36 160.19,-105.36 160.19,0 z m -72.879,139.36 c -0.4375,-9.457 -14.383,-9.5742 -14.801,0.0664 0.0664,11.961 6.5195,22.816 14.449,31.332 6.7695,7.2227 17.473,-3.0391 10.887,-10.047 -5.5625,-5.9648 -10.199,-12.969 -10.535,-21.352 z m 56.195,77.633 c 5.5781,7.7266 17.758,-0.72266 11.961,-8.7344 -5.5273,-7.8438 -16.16,-15.488 -24.008,-21.035 -6.7891,-4.8906 -15.574,3.9141 -9.9297,10.852 0.4375,0.50391 0.83984,0.875 1.3789,1.2617 6.2852,4.418 16.18,11.406 20.598,17.672 z m -40.59,35.617 c -9.1055,3.6445 -3.4258,17.336 5.5625,13.742 9.457,-3.7969 18.867,-7.9961 27.719,-13.07 8.4844,-4.9062 0.99219,-17.723 -7.4102,-12.836 -8.1836,4.7227 -17.121,8.6523 -25.871,12.164 z m -69.25,27.5 c -8.7539,4.3867 -2.5352,17.387 6.4023,13.371 8.7852,-4.2344 17.605,-8.0625 26.66,-11.66 9.0547,-3.6133 3.6133,-17.406 -5.4414,-13.777 -9.3906,3.7305 -18.531,7.6953 -27.637,12.078 z m -60.867,48.133 c -4.6211,8.7852 8.6172,15.438 13.035,7.0391 3.9141,-7.4922 11.09,-14.43 17.656,-19.621 7.6758,-6.3164 -1.4766,-17.523 -9.1211,-11.676 -8.2305,6.5 -16.684,14.902 -21.59,24.258 z m 38.305,64.965 c 8.7695,3.9492 15.004,-9.4922 5.9453,-13.574 -8.3672,-3.7305 -16.363,-7.9453 -23.387,-13.895 -6.8203,-6.4023 -17.305,4.082 -9.8633,11.055 7.7617,6.8711 17.875,12.23 27.301,16.414 z m 72.98,20.059 c 9.625,1.7461 12.148,-12.852 2.5859,-14.598 -9.5742,-1.6641 -19.117,-3.543 -28.559,-5.8281 -9.0547,-2.1523 -13.422,11.34 -3.5273,14.398 9.7617,2.3672 19.621,4.3008 29.5,6.0312 z m 74.273,8.8203 c 9.5742,0.875 11.02,-13.875 1.125,-14.785 -9.7617,-0.72266 -19.539,-1.5977 -29.281,-2.6367 -9.9102,-0.90625 -11.055,13.859 -1.5977,14.734 9.8945,1.0586 19.824,1.9648 29.754,2.7031 z m 74.441,3.3086 c 10.098,0 9.7422,-14.816 0.28516,-14.816 -9.8125,-0.16797 -19.656,-0.42188 -29.469,-0.82422 -9.7773,-0.4375 -10.297,14.383 -0.60547,14.801 9.9297,0.38672 19.859,0.65625 29.785,0.82422 z m 74.391,-0.21875 c 9.8281,-0.45312 9.457,-14.816 -0.32031,-14.816 -9.8281,0.21875 -19.672,0.37109 -29.52,0.4375 -9.7422,0 -9.6953,14.816 0.0859,14.816 9.9102,-0.0859 19.84,-0.23437 29.734,-0.4375 z m 74.273,-2.8242 c 9.6953,-0.4375 9.0547,-15.238 -0.75781,-14.801 -9.8438,0.50391 -19.672,0.97266 -29.52,1.3789 -9.8438,0.45312 -9.0703,15.238 0.58984,14.801 9.8945,-0.40234 19.789,-0.875 29.688,-1.3945 z m 92.5,-147.96 c 0,44.234 -80.102,126.42 -80.102,126.42 0,0 -80.086,-82.188 -80.086,-126.42 0,-105.36 160.19,-105.36 160.19,0 z m -80.102,-47.711 c 40.051,0 61.656,46.148 37.699,76.961 -17.574,22.629 -51.777,24.664 -71.988,4.4531 -29.23,-29.199 -7.6602,-81.414 34.289,-81.414 z m -313.78,-274.4 c 40.051,0 61.656,46.148 37.699,76.961 -17.574,22.648 -51.777,24.664 -72.004,4.4531 -29.23,-29.199 -7.6445,-81.414 34.305,-81.414 z"
       fill-rule="evenodd"
       id="path286"
       inkscape:label="path" />
  </g>
</svg>
